<?xml version="1.0" encoding="UTF-8" standalone="no"?>
<!-- Generator: Adobe Illustrator 15.0.0, SVG Export Plug-In  -->

<svg
   xmlns:dc="http://purl.org/dc/elements/1.1/"
   xmlns:cc="http://creativecommons.org/ns#"
   xmlns:rdf="http://www.w3.org/1999/02/22-rdf-syntax-ns#"
   xmlns:svg="http://www.w3.org/2000/svg"
   xmlns="http://www.w3.org/2000/svg"
   xmlns:sodipodi="http://sodipodi.sourceforge.net/DTD/sodipodi-0.dtd"
   xmlns:inkscape="http://www.inkscape.org/namespaces/inkscape"
   version="1.1"
   x="0px"
   y="0px"
   width="497px"
   height="459px"
   viewBox="-0.396 -0.244 497 459"
   enable-background="new -0.396 -0.244 497 459"
   xml:space="preserve"
   id="svg2"
   inkscape:version="0.91 r13725"
   sodipodi:docname="dama_blanca.svg"><metadata
     id="metadata12"><rdf:RDF><cc:Work
         rdf:about=""><dc:format>image/svg+xml</dc:format><dc:type
           rdf:resource="http://purl.org/dc/dcmitype/StillImage" /><dc:title></dc:title></cc:Work></rdf:RDF></metadata><sodipodi:namedview
     pagecolor="#ffffff"
     bordercolor="#666666"
     borderopacity="1"
     objecttolerance="10"
     gridtolerance="10"
     guidetolerance="10"
     inkscape:pageopacity="0"
     inkscape:pageshadow="2"
     inkscape:window-width="1366"
     inkscape:window-height="706"
     id="namedview10"
     showgrid="false"
     inkscape:zoom="0.51416122"
     inkscape:cx="380.75424"
     inkscape:cy="180.87712"
     inkscape:window-x="-8"
     inkscape:window-y="-8"
     inkscape:window-maximized="1"
     inkscape:current-layer="svg2" /><defs
     id="defs4" /><path
     d="M456.929,107.994c-20.339-0.473-39.789,20.411-27.191,48.925c-20.049,9.627-38.83,29.929-56.177,36.257  c-2.141-19.016-9.371-37.053-16.315-58.01c-5.493-16.533-19.578-40.099-18.126-56.176c1.574-17.566,15.751-17.186,12.688-38.068  c-1.851-12.509-19.923-37.089-32.63-39.881c-40.625-8.901-54.964,42.254-27.191,59.821c-21.012,21.28-30.328,54.255-47.114,79.742  c-1.27-22.352-33.029-44.448-32.63-65.24c0.18-9.264,11.185-18.328,10.876-29.004c-0.544-17.82-21.21-42.419-34.442-45.319  c-38.867-8.521-57.791,37.324-25.379,63.447c-19.885,39.934-31.525,88.1-43.506,135.938c-16.28-11.51-31.361-24.201-47.115-36.256  c2.52-27.209-15.535-56.794-41.693-56.176c-17.021,0.38-29.565,13.939-30.817,27.172c-2.519,26.83,24.11,35.023,39.88,47.133  c14.104,35.873,31.852,63.518,41.694,103.31c4.695,19.034,4.497,41.712,7.251,63.447c2.303,18.38,1.667,45.227,9.063,61.634  c4.768,10.587,32.068,27.609,45.302,32.611c24.435,9.245,59.258,12.888,96.077,14.503c53.476,2.354,146.054-4.479,161.299-32.629  c8.104-14.938,5.982-44.325,9.063-65.243c10.751-73.02,27.283-123.051,54.382-174.007  C516.188,183.223,496.557,108.9,456.929,107.994z M20.107,144.229c-4.259-13.123,12.128-22.985,23.566-10.877  C48.314,154.617,23.913,155.922,20.107,144.229z M319.178,42.734c-12.309,5.184-22.77-0.29-23.565-9.063  C293.779,13.33,335.075,16.629,319.178,42.734z M186.864,44.546c-8.413,0.544-15.699-0.019-19.94-3.625  c0.291-2.104-0.398-3.228-1.813-3.625C161.828,4.829,208.797,25.113,186.864,44.546z M219.493,426.987  c-39.808-1.743-83.623-6.583-103.327-27.174c61.163-31.328,197.139-33.826,255.582,1.813  C340.821,425.118,275.816,429.468,219.493,426.987z M382.624,318.238c-46.369-9.081-36.327,35.059-5.438,36.256  c0.108,9.191-3.119,15.008-1.813,25.379c-66.565-32.159-193.477-29.567-262.833-1.813c1.07-9.518-3.189-13.723-1.813-23.565  c30.056-1.869,41.656-45.104-5.421-36.256c-1.487-9.389-1.813-19.939-3.625-29.004c80.741-37.052,203.827-37.161,284.569,0  C385.688,299.565,382.75,307.506,382.624,318.238z M391.688,271.106c-81.883-38.16-213.708-38.613-295.445,0  c-9.227-31.868-22.587-59.569-34.443-88.808c25.669,13.596,42.31,36.237,67.055,50.758c15.1-21.683,13.994-53.405,21.752-81.576  c7.813-28.351,19.397-55.543,30.817-79.742c25.143,32.846,41.041,74.957,58.009,115.999c14.267,5.184,17.256-17.476,21.735-29.005  c12.31-31.631,28.822-63.808,43.507-86.993c18.599,33.299,32.557,76.662,41.693,121.437c2.7,13.234,0.997,30.764,12.689,39.881  c25.196-13.469,40.822-36.51,65.24-50.758C418.081,209.31,399.465,239.617,391.688,271.106z M446.053,147.854  c-5.945-7.468-4.06-22.677,16.313-19.94C478.464,134.259,458.434,163.409,446.053,147.854z"
     id="path6"
     inkscape:export-xdpi="90"
     inkscape:export-ydpi="90" /><path
     d="M279.297,312.799c-0.436,22.625-69.991,24.891-72.493,1.813C203.995,288.707,273.496,286.334,279.297,312.799z"
     id="path8"
     inkscape:export-xdpi="90"
     inkscape:export-ydpi="90" /><path
     style="opacity:1;fill:#ffffff;fill-opacity:1;stroke:none;stroke-width:0.67199999;stroke-linecap:round;stroke-linejoin:round;stroke-miterlimit:4;stroke-dasharray:none;stroke-opacity:1"
     d="m 448.41736,147.58146 c -5.69811,-5.69811 -5.86348,-9.44382 -0.64724,-14.66006 2.90303,-2.90303 5.97124,-3.83683 11.18326,-3.4036 6.2573,0.52012 7.26348,1.30227 7.81018,6.07126 1.41849,12.37381 -10.30286,20.03574 -18.3462,11.9924 z"
     id="path4154"
     inkscape:connector-curvature="0"
     transform="translate(-0.396,-0.244)"
     inkscape:export-xdpi="90"
     inkscape:export-ydpi="90" /><path
     style="opacity:1;fill:#ffcc99;fill-opacity:1;stroke:none;stroke-width:0.67199999;stroke-linecap:round;stroke-linejoin:round;stroke-miterlimit:4;stroke-dasharray:none;stroke-opacity:1"
     d="m 301.03686,41.049109 c -2.41348,-1.764783 -3.25113,-4.51519 -2.80287,-9.203232 0.50365,-5.267441 1.77425,-7.082889 5.98783,-8.555491 8.69687,-3.039466 15.91818,0.549486 16.66449,8.28216 0.34041,3.5271 -0.42317,7.668555 -1.69684,9.203232 -2.88401,3.475023 -13.55431,3.635691 -18.15261,0.273331 z"
     id="path4156"
     inkscape:connector-curvature="0"
     transform="translate(-0.396,-0.244)"
     inkscape:export-xdpi="90"
     inkscape:export-ydpi="90" /><path
     style="opacity:1;fill:#ffcc99;fill-opacity:1;stroke:none;stroke-width:0.67199999;stroke-linecap:round;stroke-linejoin:round;stroke-miterlimit:4;stroke-dasharray:none;stroke-opacity:1"
     d="m 448.41736,147.58146 c -5.69811,-5.69811 -5.86348,-9.44382 -0.64724,-14.66006 2.90303,-2.90303 5.97124,-3.83683 11.18326,-3.4036 6.2573,0.52012 7.26348,1.30227 7.81018,6.07126 1.41849,12.37381 -10.30286,20.03574 -18.3462,11.9924 z"
     id="path4158"
     inkscape:connector-curvature="0"
     transform="translate(-0.396,-0.244)"
     inkscape:export-xdpi="90"
     inkscape:export-ydpi="90" /><path
     style="opacity:1;fill:#ffcc99;fill-opacity:1;stroke:none;stroke-width:0.67199999;stroke-linecap:round;stroke-linejoin:round;stroke-miterlimit:4;stroke-dasharray:none;stroke-opacity:1"
     d="m 168.70291,40.509805 c -9.4651,-9.465095 4.13068,-22.95537 16.47614,-16.348282 11.51335,6.161759 7.53875,19.404579 -5.82395,19.404579 -4.31214,0 -8.91715,-1.321257 -10.65219,-3.056297 z"
     id="path4160"
     inkscape:connector-curvature="0"
     transform="translate(-0.396,-0.244)"
     inkscape:export-xdpi="90"
     inkscape:export-ydpi="90" /><path
     style="opacity:1;fill:#ffcc99;fill-opacity:1;stroke:none;stroke-width:0.67199999;stroke-linecap:round;stroke-linejoin:round;stroke-miterlimit:4;stroke-dasharray:none;stroke-opacity:1"
     d="M 96.673318,266.94692 C 89.519245,246.78069 82.769654,229.26503 75.194311,211.20738 70.129611,199.13445 66.505338,188.73703 67.14037,188.102 c 1.370937,-1.37093 9.955891,4.92388 32.379122,23.74162 9.092478,7.63047 19.499168,15.92211 23.125978,18.42587 6.30197,4.35055 6.70853,4.39592 9.17436,1.0237 4.17106,-5.70427 10.10294,-25.89156 13.44278,-45.74827 5.86847,-34.89046 18.44258,-74.15047 32.94122,-102.851965 l 4.3057,-8.523571 8.14532,12.413401 c 10.63063,16.201015 24.92857,45.111515 37.881,76.595605 9.27519,22.54561 10.94846,25.34928 15.45013,25.88756 6.37655,0.76248 8.98855,-3.11834 16.94364,-25.17424 6.22109,-17.24829 30.87563,-68.537173 39.60954,-82.399761 l 4.90146,-7.779661 8.13936,17.504237 c 14.8255,31.883315 28.58739,78.799215 34.97834,119.245275 1.50267,9.50976 3.68725,15.89434 6.59531,19.27518 l 4.34842,5.05533 9.03948,-6.21933 c 4.97171,-3.42063 17.58661,-13.70993 28.03308,-22.8651 20.93699,-18.34894 25.81091,-21.71384 25.78296,-17.80025 -0.01,1.37476 -4.02973,12.1269 -8.93315,23.89364 -4.90343,11.76674 -11.82411,29.27098 -15.37934,38.89831 -3.98546,10.79241 -7.4584,17.38116 -9.05732,17.18328 -1.4263,-0.17659 -11.53813,-3.42715 -22.47075,-7.22362 -71.23073,-24.73562 -172.12671,-24.91869 -243.39817,-0.44163 -10.30538,3.53922 -20.2613,7.09358 -22.12427,7.8986 -2.171805,0.93847 -3.72236,0.51889 -4.321252,-1.16929 z"
     id="path4162"
     inkscape:connector-curvature="0"
     transform="translate(-0.396,-0.244)"
     inkscape:export-xdpi="90"
     inkscape:export-ydpi="90" /><path
     style="opacity:1;fill:#ff9966;fill-opacity:1;stroke:none;stroke-width:0.67199999;stroke-linecap:round;stroke-linejoin:round;stroke-miterlimit:4;stroke-dasharray:none;stroke-opacity:1"
     d="M 363.12696,373.86029 C 331.2182,361.26853 288.49923,355.82662 232.33922,357.1994 c -44.17403,1.07979 -72.75739,5.05794 -101.43633,14.11762 -8.90348,2.81261 -16.42527,4.83107 -16.71509,4.48548 -0.28983,-0.34559 -1.11327,-5.22321 -1.82987,-10.83915 -1.10783,-8.68188 -0.82726,-10.21081 1.87373,-10.21081 6.13019,0 16.90163,-6.55478 20.51865,-12.48629 4.86194,-7.97302 4.615,-13.42407 -0.89853,-19.83392 -3.88266,-4.51386 -6.21396,-5.3575 -15.57727,-5.637 -6.0562,-0.18078 -11.32113,-0.68529 -11.69984,-1.12112 -0.37872,-0.43584 -1.25118,-6.51417 -1.9388,-13.50742 l -1.25021,-12.71499 17.02984,-6.12149 c 42.30099,-15.20539 67.15104,-19.01633 124.00018,-19.01633 56.88575,0 83.18642,4.02015 124.17595,18.98074 l 17.20564,6.2798 -1.26883,9.73626 c -2.34424,17.98861 -1.95789,17.50381 -14.04522,17.62376 -9.37393,0.093 -11.49972,0.84295 -15.46854,5.45697 -5.36678,6.23926 -5.75576,10.87221 -1.58932,18.92922 3.2299,6.24593 13.30289,13.41265 18.8685,13.42454 2.72799,0.006 3.37647,1.64803 3.26689,8.27316 -0.238,14.39213 -1.23469,15.26121 -12.43379,10.84186 z m -93.37393,-47.56361 c 15.00534,-7.77339 13.01141,-20.64719 -4.39011,-28.34471 -17.82615,-7.88535 -50.77546,-3.31875 -56.76184,7.86689 -5.16449,9.64994 -1.55247,16.71985 11.56102,22.62872 9.94288,4.48019 39.24383,3.20933 49.59093,-2.1509 z"
     id="path4164"
     inkscape:connector-curvature="0"
     transform="translate(-0.396,-0.244)"
     inkscape:export-xdpi="90"
     inkscape:export-ydpi="90" /><path
     style="opacity:1;fill:#ffcc99;fill-opacity:1;stroke:none;stroke-width:0.67199999;stroke-linecap:round;stroke-linejoin:round;stroke-miterlimit:4;stroke-dasharray:none;stroke-opacity:1"
     d="m 191.90297,424.55092 c -32.50585,-3.48913 -63.39297,-12.99481 -70.65436,-21.74425 -1.94225,-2.34026 -0.76834,-3.49235 6.93517,-6.80631 50.69337,-21.8077 153.28055,-25.15331 211.25591,-6.88956 8.70989,2.74385 19.25477,6.72572 23.43309,8.84862 l 7.59694,3.85981 -6.15192,3.89513 c -9.10339,5.76385 -30.14496,12.61805 -49.92621,16.26323 -20.94008,3.85874 -95.85142,5.43253 -122.48862,2.57333 z"
     id="path4166"
     inkscape:connector-curvature="0"
     transform="translate(-0.396,-0.244)"
     inkscape:export-xdpi="90"
     inkscape:export-ydpi="90" /><path
     style="opacity:1;fill:#ffcc99;fill-opacity:1;stroke:none;stroke-width:0.67199999;stroke-linecap:round;stroke-linejoin:round;stroke-miterlimit:4;stroke-dasharray:none;stroke-opacity:1"
     d="m 24.05678,148.20254 c -5.905919,-5.90592 -0.621172,-19.06017 7.657462,-19.06017 10.432702,0 15.515921,11.16827 8.346411,18.33777 -3.616877,3.61688 -12.699416,4.02686 -16.003873,0.7224 z"
     id="path4168"
     inkscape:connector-curvature="0"
     transform="translate(-0.396,-0.244)"
     inkscape:export-xdpi="90"
     inkscape:export-ydpi="90" /></svg>